<svg width="24" height="44" viewBox="0 0 24 44" fill="none" xmlns="http://www.w3.org/2000/svg">
<rect opacity="0.5" x="1" y="7.19354" width="22" height="35.1613" rx="4" stroke="white" stroke-width="2"/>
<g opacity="0.5">
<mask id="path-2-inside-1" fill="white">
<rect x="6.96771" width="10.0645" height="4.64516" rx="1"/>
</mask>
<rect x="6.96771" width="10.0645" height="4.64516" rx="1" stroke="white" stroke-width="4" mask="url(#path-2-inside-1)"/>
</g>
<path opacity="0.5" d="M8.68295 25.9282H11.7274C11.8271 25.9282 11.9045 26.0078 11.8929 26.0985L11.1982 31.5713C11.1765 31.7428 11.4336 31.8103 11.5143 31.6542L15.4676 24.0093C15.52 23.908 15.4393 23.7913 15.317 23.7913H12.4366C12.3363 23.7913 12.2588 23.7109 12.2712 23.6198L13.041 17.9785C13.0644 17.8076 12.8091 17.7376 12.7262 17.8922L8.5334 25.7082C8.479 25.8097 8.55959 25.9282 8.68295 25.9282Z" fill="white"/>
</svg>
