<svg width="76" height="28" viewBox="0 0 76 28" fill="none" xmlns="http://www.w3.org/2000/svg">
<path d="M0.666504 13.8495C0.666504 21.9785 6.38693 27.6989 16.6235 27.6989C21.4803 27.6989 27.4215 24.4458 32.9035 19.9974C33.381 19.61 33.4113 18.8953 32.9765 18.4605C32.5847 18.0687 31.9567 18.0505 31.5302 18.4043C27.6314 21.6386 23.4024 23.6328 21.1396 24.3871C14.2149 26.6953 7.99267 24.086 6.08586 21.9785C2.27224 17.7634 3.17546 12.9799 3.67726 10.8387C5.48371 4.01807 12.007 2.60932 15.4192 2.70968C20.7181 2.70968 26.559 6.62366 33.1826 12.6452C42.3353 21.557 48.2207 24.7212 50.772 25.7914C53.1029 26.8164 56.5447 28 59.3762 28C70.2149 28 75.3332 21.332 75.3332 13.8495C75.3332 7.52688 70.516 0 59.9783 0C53.4097 0 47.3544 3.6367 43.3894 7.5321C42.8902 8.02253 42.9076 8.82179 43.4025 9.31661C43.9105 9.82469 44.7343 9.82469 45.2424 9.31661L45.5267 9.03226C47.3332 6.92473 50.3016 5.11828 51.5482 4.51613C58.7354 1.2043 62.6845 2.41908 66.3009 3.6129C72.6851 5.72043 75.0793 15.0538 71.4192 19.871C67.7591 24.6882 64.3674 25.2903 59.6773 25.2903C54.9871 25.2903 48.2364 21.0753 42.817 15.6559C32.8816 5.72043 27.6629 3.67958 25.0536 2.10753C22.9461 0.837794 19.1539 0 16.3224 0C6.38693 0 0.666504 6.3669 0.666504 13.8495Z" fill="white"/>
</svg>
