<svg width="32" height="42" viewBox="0 0 32 42" fill="none" xmlns="http://www.w3.org/2000/svg">
<path opacity="0.5" d="M8.58528 27.1514C4.84992 21.273 0.495785 10.857 1.04752 5.89968C1.0908 5.51083 1.2151 5.13612 1.42988 4.80909C2.31019 3.46872 3.99837 2.36329 5.72531 1.53522C8.02893 0.43063 10.606 1.81852 11.4858 4.21702L13.158 8.77573C13.7272 10.3277 13.4926 12.0608 12.5312 13.4055L12.337 13.6771C11.3485 15.0597 11.1121 16.8604 11.9062 18.3631C13.2862 20.9744 15.1635 23.7111 16.7027 25.7695C17.776 27.2049 19.6542 27.7353 21.3553 27.171C22.9065 26.6564 24.6153 27.0534 25.7807 28.1992L29.5104 31.8658C31.0738 33.4028 31.4238 35.7974 29.8371 37.3103C28.6325 38.4587 27.2436 39.5034 26.1265 40.2577C25.3783 40.763 24.4758 41.0319 23.6163 40.7557C19.3739 39.392 12.0399 32.588 8.58528 27.1514Z" stroke="white"/>
</svg>
