<svg width="43" height="43" viewBox="0 0 43 43" fill="none" xmlns="http://www.w3.org/2000/svg">
<path d="M31.9801 39.9423L30.4975 33.5634L33.6671 30.6311L39.9551 32.0715L42 27.133L36.4277 23.6863V19.3137L42 15.8156L39.9551 10.9799L33.6671 12.5232L30.4975 9.38519L31.9801 2.95483L27.1234 1L23.6471 6.60728H19.2506L15.8766 1L11.02 2.95483L12.4514 9.38519L9.33292 12.5232L3.14713 10.9799L1 15.8156L6.57232 19.3137V23.6863L1 27.133L3.14713 32.0715L9.33292 30.6311L12.4514 33.5634L11.02 39.9423L15.8766 42L19.2506 36.5471H23.6471L27.1234 42L31.9801 39.9423Z" stroke="white" stroke-opacity="0.5"/>
</svg>
